<?xml version="1.0" encoding="UTF-8"?><svg id="Layer_2" xmlns="http://www.w3.org/2000/svg" viewBox="0 0 110.08 111.85"><defs><style>.cls-1{fill:#ce97f0;}.cls-2{isolation:isolate;}.cls-3{fill:#3a5a85;}</style></defs><g id="Layer_1-2"><g id="Layer_1-3"><g class="cls-2"><path class="cls-1" d="M13.73,6.46C1.39,18.79,6.5,43.48,5.62,52.97c-1.41,15.16-12.33,29.95,.7,45.46,13.04,15.51,64.37,19.3,83.88,2.12,23.61-20.79,26.78-63.43,6.34-85.99C84.19,.93,26.07-5.88,13.73,6.46Z"/></g><path class="cls-3" d="M56.88,27.1c-1.3,3.6-2.51,7.9-3.45,12.58-.96,4.68-1.59,9.75-1.87,14.86-.13,2.55-.09,5.12-.05,7.64,0,2.52,.38,5.01,.59,7.4,.39,2.39,.67,4.7,1.29,6.85,.52,2.16,1.08,4.18,1.84,5.99,.62,1.83,1.36,3.45,2.16,4.83,.72,1.4,1.37,2.59,2.1,3.47,1.35,1.81,2.15,2.77,2.15,2.77,0,0-.38-1.2-1.06-3.31-.41-1-.64-2.32-1-3.77-.4-1.44-.69-3.09-.96-4.91-.35-1.78-.5-3.77-.73-5.84-.3-2.05-.2-4.29-.43-6.54-.04-4.56-.17-9.42,.19-14.3,.14-4.88,.65-9.76,1.07-14.35,.48-4.58,1.02-8.86,1.53-12.55,.53-3.69,1.04-6.73,1.41-8.9,.43-2.18,.67-3.43,.67-3.43,0,0-.7,1.07-1.8,2.99-1,2-2.4,4.91-3.65,8.52Z"/><path class="cls-3" d="M23.7,53.28c-3.45-.07-5.74-.31-5.74-.31,0,0,2.22,.62,5.63,1.26,3.41,.66,7.97,1.4,12.54,2.07,9.14,1.34,18.34,2.43,18.34,2.43l.21-6.11s-9.17,.45-18.36,.63c-4.59,.09-9.18,.12-12.62,.03Z"/></g></g></svg>