<?xml version="1.0" encoding="UTF-8"?><svg id="Layer_2" xmlns="http://www.w3.org/2000/svg" viewBox="0 0 91 87.14"><defs><style>.cls-1{isolation:isolate;}.cls-2{fill:#a195f0;}.cls-3{fill:#3a5a85;}</style></defs><g id="Layer_1-2"><g id="Layer_1-3"><g class="cls-1"><path class="cls-2" d="M57.97,.1c-16.58-1.25-17.83,9.4-26.51,12.3-6,2-17.47-.83-27.97,10.12-10.85,11.33,5.28,64.03,25.31,64.6,16.88,.48,22.18-10.37,27.72-12.78,5.54-2.41,23.86,3.38,33.02-10.85C95.96,53.55,80.39,1.79,57.97,.1Z"/></g><path class="cls-3" d="M53.62,60.84c-1.5-2.04-2.71-5.14-3.98-8.46-1.21-3.43-2.5-7.08-3.79-10.74-1.43-3.68-2.85-7.36-4.38-10.74-.77-1.83-1.42-3.05-1.67-4.38-.24-1.32-.22-2.62,.06-3.86,.59-2.48,1.99-4.53,2.97-5.92,1.06-1.4,1.66-2.2,1.66-2.2,0,0-.94,.38-2.48,1.31-1.48,.96-3.77,2.46-5.41,5.52-.81,1.51-1.39,3.43-1.35,5.5-.01,2.07,.61,4.24,1.15,5.86,1.04,3.56,2.38,7.27,3.69,10.99,1.45,3.7,2.79,7.41,4.62,10.85,1.77,3.38,3.7,6.58,6.41,8.75,1.31,1.1,2.85,1.81,4.2,2.06,1.35,.26,2.46,.2,3.35,.15,1.77-.14,2.77-.27,2.77-.27,0,0-.95-.34-2.61-.93-1.68-.57-3.8-1.39-5.21-3.49Z"/><path class="cls-3" d="M45.35,40.62c-1.43-3.65-2.84-7.3-4.36-10.65-.48-1.43-1.92-4.12-3.7-5.2-1.7-1.28-3.49-1.85-5.08-2.18-3.2-.65-5.81-.31-7.56,.04-1.77,.38-2.68,.79-2.68,.79,0,0,1.03,.1,2.69,.42,1.67,.33,4.03,.91,6.44,2.07,1.19,.59,2.35,1.39,3.21,2.31,.95,1.02,1.03,1.69,1.67,3.74,1.04,3.54,2.37,7.23,3.67,10.92,2.86,7.3,5.98,14.23,7.27,19.59,.61,2.65,.45,4.77-.2,6.35-.67,1.6-1.05,2.52-1.05,2.52,0,0,.79-.6,2.08-1.87,1.33-1.24,2.67-4.04,2.68-7.28,.11-3.21-.48-6.79-1.43-10.45-.88-3.73-2.32-7.41-3.65-11.12Z"/></g></g></svg>