<?xml version="1.0" encoding="UTF-8"?><svg id="Layer_2" xmlns="http://www.w3.org/2000/svg" viewBox="0 0 129.52 125.43"><defs><style>.cls-1{fill:#ce97f0;}.cls-2{isolation:isolate;}.cls-3{fill:#3a5a85;}</style></defs><g id="Layer_1-2"><g id="Layer_1-3"><g class="cls-2"><path class="cls-1" d="M100.91,3.08c-11.34-7.31-36.32,0-51.54,5.19C34.15,13.46,6.13,23.14,.94,37.67c-5.19,14.53,12.8,29.75,15.22,40.13s.35,36.1,15.57,44.27c18.68,10.03,85.09-3.11,96.16-30.44,6.92-17.1-10.03-35.63-14.53-44.97-4.48-9.34-1.72-36.67-12.45-43.58Z"/></g><path class="cls-3" d="M72.21,65.64c-2.78-9.52-6.8-18.61-10.54-25.04-3.64-6.51-7.09-10.17-7.09-10.17,0,0,1.68,4.68,3.9,11.59,1.11,3.45,2.4,7.48,3.79,11.8,1.28,4.34,2.83,8.89,4.08,13.53,1.43,4.59,2.6,9.23,3.74,13.57,1.05,4.36,2.04,8.44,2.66,11.98,.7,3.54,1.11,6.54,1.34,8.66,.25,2.15,.39,3.38,.39,3.38,0,0,.34-1.18,.83-3.32,.45-2.13,.94-5.26,.94-9,.15-3.76-.21-8.13-.88-12.75-.67-4.62-1.81-9.46-3.16-14.23Z"/><path class="cls-3" d="M80.61,63.1c-3.84,1.73-7.89,3.63-12.02,5.34-8.18,3.57-16.51,6.58-22.97,8.38-1.61,.51-3.11,.8-4.45,1.14-1.34,.35-2.51,.62-3.5,.76-1.98,.4-3.12,.63-3.12,.63,0,0,1.12,.25,3.14,.58,1.01,.19,2.25,.35,3.67,.36,1.42,.05,3.06,.18,4.8-.01,3.51-.17,7.62-.72,11.85-1.85,4.28-1,8.66-2.63,12.97-4.38,8.54-3.69,16.45-8.58,21.92-12.84,5.54-4.19,8.64-7.7,8.64-7.7,0,0-4.29,1.83-10.45,4.71-3.06,1.43-6.64,3.1-10.48,4.88Z"/></g></g></svg>