<?xml version="1.0" encoding="UTF-8"?><svg id="Layer_2" xmlns="http://www.w3.org/2000/svg" viewBox="0 0 121.8 118"><defs><style>.cls-1{fill:#ce97f0;}.cls-2{isolation:isolate;}.cls-3{fill:#3a5a85;}</style></defs><g id="Layer_1-2"><g id="Layer_1-3"><g class="cls-2"><path class="cls-1" d="M95.28,3.08c-15.57-8.65-34.94,3.46-47.39,5.19-12.45,1.73-35.22,4.47-42.58,14.44C-5.41,37.24,.5,97.87,19.53,112.39c8.9,6.79,28.38,7.18,48.77,2.42,23.2-5.42,41.71,.39,51.75-18.98,6.27-12.11-6.08-34.63-8.85-47.43-2.78-12.81-.35-36.67-15.92-45.32Z"/></g><path class="cls-3" d="M66.77,60.29c-1.89-9.74-5.06-19.15-8.19-25.9-3.02-6.82-6.13-10.78-6.13-10.78,0,0,1.24,4.81,2.82,11.9,.79,3.54,1.7,7.67,2.69,12.09,.87,4.44,2,9.11,2.81,13.85,1,4.7,1.74,9.43,2.47,13.86,.64,4.44,1.25,8.59,1.54,12.18,.37,3.59,.5,6.61,.54,8.75,.05,2.16,.08,3.4,.08,3.4,0,0,.44-1.14,1.13-3.23,.65-2.08,1.42-5.15,1.77-8.88,.5-3.73,.54-8.11,.3-12.77-.23-4.67-.92-9.59-1.83-14.47Z"/><path class="cls-3" d="M77.55,59.6c-4.12,.92-8.47,1.96-12.85,2.8-8.73,1.84-17.5,3.11-24.19,3.57-1.68,.17-3.21,.15-4.58,.22-1.38,.07-2.59,.1-3.58,.04-2.03-.01-3.18-.01-3.18-.01,0,0,1.05,.47,2.96,1.21,.96,.39,2.14,.8,3.53,1.09,1.38,.33,2.96,.79,4.7,.96,3.48,.54,7.61,.83,11.98,.58,4.4-.11,9.01-.83,13.58-1.67,9.11-1.89,17.85-5.08,24.07-8.15,6.27-2.99,10.02-5.79,10.02-5.79,0,0-4.57,.93-11.19,2.5-3.3,.77-7.15,1.68-11.27,2.65Z"/></g></g></svg>