<?xml version="1.0" encoding="UTF-8"?><svg id="Layer_2" xmlns="http://www.w3.org/2000/svg" viewBox="0 0 110.09 111.85"><defs><style>.cls-1{fill:#ce97f0;}.cls-2{isolation:isolate;}.cls-3{fill:#3a5a85;}</style></defs><g id="Layer_1-2"><g id="Layer_1-3"><g class="cls-2"><path class="cls-1" d="M96.35,6.46C84.02-5.88,25.89,.93,13.54,14.56-6.9,37.12-3.73,79.76,19.88,100.55c19.51,17.18,70.83,13.39,83.88-2.12,13.04-15.51,2.12-30.3,.7-45.46-.88-9.5,4.23-34.18-8.11-46.51Z"/></g><path class="cls-3" d="M56.64,39.67c-.93-4.68-2.15-8.98-3.45-12.58-1.25-3.6-2.64-6.51-3.68-8.49-1.1-1.92-1.8-2.99-1.8-2.99,0,0,.25,1.25,.67,3.43,.37,2.16,.88,5.21,1.41,8.9,.5,3.68,1.05,7.96,1.53,12.55,.42,4.59,.94,9.47,1.07,14.35,.36,4.88,.24,9.74,.19,14.3-.23,2.25-.13,4.49-.43,6.54-.23,2.07-.38,4.05-.73,5.84-.27,1.81-.56,3.47-.96,4.91-.36,1.45-.59,2.77-1,3.77-.67,2.11-1.06,3.31-1.06,3.31,0,0,.8-.96,2.15-2.77,.73-.89,1.38-2.08,2.1-3.47,.8-1.37,1.54-2.99,2.16-4.83,.76-1.81,1.32-3.82,1.84-5.99,.62-2.15,.9-4.46,1.29-6.85,.21-2.39,.59-4.88,.59-7.4,.05-2.52,.09-5.09-.05-7.64-.25-5.13-.88-10.2-1.84-14.89Z"/><path class="cls-3" d="M73.63,52.35c-4.62,.01-9.25,.1-12.77,.27-1.72,.07-3.32,.22-4.33,.3-1,.11-1.58,.17-1.58,.17l1.17,6.01s.55-.16,1.53-.43c.97-.25,2.2-.57,3.9-.93,3.32-.73,7.83-1.57,12.36-2.34,9.06-1.55,18.19-2.84,18.19-2.84,0,0-9.22-.24-18.47-.21Z"/></g></g></svg>