<?xml version="1.0" encoding="UTF-8"?><svg id="Layer_2" xmlns="http://www.w3.org/2000/svg" viewBox="0 0 121.8 118"><defs><style>.cls-1{fill:#ce97f0;}.cls-2{isolation:isolate;}.cls-3{fill:#3a5a85;}</style></defs><g id="Layer_1-2"><g id="Layer_1-3"><g class="cls-2"><path class="cls-1" d="M73.91,8.27c-12.46-1.73-31.83-13.84-47.39-5.19C10.95,11.73,13.37,35.6,10.61,48.4c-2.77,12.8-15.13,35.32-8.85,47.43,10.03,19.37,28.55,13.57,51.75,18.98,20.39,4.76,39.87,4.37,48.77-2.42,19.02-14.53,24.94-75.16,14.22-89.68-7.37-9.97-30.14-12.71-42.59-14.44Z"/></g><path class="cls-3" d="M55.02,60.29c-.9,4.87-1.59,9.8-1.83,14.47-.24,4.66-.2,9.04,.3,12.77,.35,3.73,1.12,6.8,1.77,8.88,.69,2.08,1.13,3.23,1.13,3.23,0,0,.03-1.24,.08-3.4,.04-2.13,.17-5.16,.54-8.75,.29-3.58,.9-7.74,1.54-12.18,.73-4.43,1.47-9.16,2.47-13.86,.81-4.73,1.94-9.41,2.81-13.85,.98-4.43,1.9-8.55,2.69-12.09,1.58-7.09,2.82-11.9,2.82-11.9,0,0-3.11,3.95-6.13,10.78-3.13,6.75-6.29,16.17-8.19,25.9Z"/><path class="cls-3" d="M85.88,66.19c-1.38-.07-2.91-.05-4.58-.22-6.69-.46-15.46-1.73-24.19-3.57-4.38-.84-8.74-1.88-12.85-2.8-4.12-.97-7.97-1.87-11.27-2.65-6.62-1.57-11.19-2.5-11.19-2.5,0,0,3.75,2.81,10.02,5.79,6.22,3.06,14.96,6.25,24.07,8.15,4.57,.84,9.19,1.56,13.59,1.67,4.37,.25,8.51-.04,11.98-.58,1.74-.17,3.32-.63,4.7-.96,1.39-.29,2.57-.7,3.53-1.09,1.92-.73,2.96-1.21,2.96-1.21,0,0-1.16,0-3.18,.01-1.01,.06-2.21,.03-3.59-.04Z"/></g></g></svg>