<?xml version="1.0" encoding="UTF-8"?><svg id="Layer_2" xmlns="http://www.w3.org/2000/svg" viewBox="0 0 80.81 83.2"><defs><style>.cls-1{isolation:isolate;}.cls-2{fill:#a195f0;}.cls-3{fill:#3a5a85;}</style></defs><g id="Layer_1-2"><g id="Layer_1-3"><g class="cls-1"><path class="cls-2" d="M50.3,.57c-11.64-2.43-15.31,3.25-27.18,10.52C12.01,17.9,2.95,18.84,.43,30.34c-3.52,16.1,15.24,48.04,32.04,52.28,12.23,3.09,19.64-6.93,30.61-14.29,10.52-7.06,15.33-10.48,17.48-21.15C83.25,33.78,64.09,3.45,50.3,.57Z"/></g><path class="cls-3" d="M50.56,46.38c-1.58-3.2-3.67-6.2-5.68-9.18-1.04-1.44-2.08-2.87-3.1-4.29-1.08-1.51-1.65-2.44-3.1-4.36-2.82-3.19-6.19-4.47-8.99-5.17-2.83-.72-5.26-.67-6.9-.47-1.68,.22-2.52,.57-2.52,.57,0,0,3.73,.67,8.13,3.21,2.16,1.25,4.57,3.03,5.97,5.15,.5,.82,1.53,3,2.5,4.37,1,1.49,2,3,3.02,4.51,2.12,2.89,4.18,5.75,6.01,8.37,.96,1.51,1.52,2.19,1.83,3.45s.5,2.62,.63,3.89c.38,5.15,.03,8.89,.03,8.89,0,0,2.37-3.02,3.5-8.67,.28-1.41,.5-2.99,.38-4.78,0-1.84-.93-4.12-1.71-5.49Z"/><path class="cls-3" d="M62.01,53.48c-1.5-.27-3.6-.88-5.88-1.91-1.14-.5-2.3-1.19-3.34-1.93-.52-.35-.99-.87-1.16-1.08l-.33-.46s-.24-.32-.05-.1l-.15-.26-.63-1.04c-1.67-2.85-3.58-5.85-5.48-8.83-1.95-2.9-3.9-5.8-5.73-8.53-.77-1.16-1.17-2.07-1.45-3.43-.23-1.27-.33-2.62-.37-3.89-.01-2.55,.13-4.81,.18-6.39,.02-1.61,.04-2.52,.04-2.52,0,0-.49,.79-1.23,2.21-.72,1.43-1.75,3.48-2.5,6.23-.38,1.38-.71,2.94-.71,4.72-.08,1.7,.35,3.99,1.31,5.71,1.52,3.18,3.43,6.19,5.36,9.23,2.01,2.98,4.08,5.89,6.23,8.52l.8,.99,.21,.24c.31,.38,.21,.23,.34,.37l.47,.45c1.01,.89,1.8,1.33,2.62,1.71,1.62,.79,3.2,1.1,4.62,1.35,2.86,.44,5.26,.2,6.87-.19,1.62-.4,2.4-.93,2.4-.93,0,0-.93,.05-2.44-.24Z"/></g></g></svg>