<?xml version="1.0" encoding="UTF-8"?><svg id="Layer_2" xmlns="http://www.w3.org/2000/svg" viewBox="0 0 80.82 83.21"><defs><style>.cls-1{isolation:isolate;}.cls-2{fill:#a195f0;}.cls-3{fill:#3a5a85;}</style></defs><g id="Layer_1-2"><g id="Layer_1-3"><g class="cls-1"><path class="cls-2" d="M57.69,11.09C45.82,3.81,42.15-1.86,30.51,.57,16.72,3.45-2.45,33.78,.26,47.19c2.15,10.67,6.96,14.09,17.48,21.15,10.97,7.36,18.38,17.38,30.61,14.29,16.8-4.24,35.56-36.18,32.04-52.28-2.53-11.52-11.59-12.46-22.7-19.26Z"/></g><path class="cls-3" d="M51.12,23.38c-2.8,.7-6.17,1.98-8.99,5.17-1.45,1.92-2.02,2.85-3.1,4.36-1.02,1.41-2.06,2.85-3.1,4.29-2.01,2.98-4.1,5.98-5.68,9.18-.78,1.36-1.71,3.65-1.71,5.49-.12,1.8,.1,3.37,.38,4.78,1.14,5.64,3.5,8.67,3.5,8.67,0,0-.36-3.74,.03-8.89,.12-1.27,.32-2.63,.63-3.89s.88-1.94,1.83-3.45c1.83-2.62,3.89-5.48,6.01-8.37,1.01-1.51,2.02-3.02,3.01-4.51,.98-1.37,2.01-3.55,2.5-4.37,1.4-2.12,3.81-3.9,5.97-5.15,4.39-2.53,8.13-3.21,8.13-3.21,0,0-.84-.35-2.52-.57-1.63-.2-4.07-.25-6.89,.47Z"/><path class="cls-3" d="M44.37,15.32c-.74-1.42-1.23-2.21-1.23-2.21,0,0,.01,.92,.04,2.52,.05,1.59,.19,3.85,.18,6.39-.04,1.27-.13,2.61-.37,3.89-.28,1.35-.68,2.27-1.45,3.43-1.83,2.72-3.78,5.62-5.73,8.53-1.9,2.98-3.81,5.98-5.48,8.83l-.63,1.04-.15,.26c.18-.22-.05,.1-.05,.1l-.33,.46c-.16,.21-.64,.73-1.16,1.08-1.03,.74-2.2,1.42-3.34,1.93-2.28,1.03-4.38,1.64-5.88,1.91-1.51,.29-2.44,.24-2.44,.24,0,0,.78,.52,2.4,.93,1.61,.4,4,.63,6.87,.19,1.43-.24,3-.56,4.62-1.35,.82-.38,1.61-.82,2.62-1.71l.47-.45c.13-.14,.03,.01,.34-.37l.21-.24,.8-.99c2.15-2.63,4.22-5.54,6.23-8.52,1.93-3.04,3.84-6.05,5.36-9.23,.96-1.72,1.39-4,1.31-5.71,0-1.78-.33-3.34-.71-4.72-.75-2.75-1.78-4.8-2.5-6.23Z"/></g></g></svg>