<?xml version="1.0" encoding="UTF-8"?><svg id="Layer_2" xmlns="http://www.w3.org/2000/svg" viewBox="0 0 84.67 86.2"><defs><style>.cls-1{isolation:isolate;}.cls-2{fill:#a195f0;}.cls-3{fill:#3a5a85;}</style></defs><g id="Layer_1-2"><g id="Layer_1-3"><g class="cls-1"><path class="cls-2" d="M52.31,10.4C45.12,7.89,36.07-1.06,25.01,.1,15.96,1.05-3.26,35.91,.48,54.11c2.86,13.92,17.03,15.6,25.56,20.21,8.53,4.6,12.27,12.87,26.13,11.78,18.44-1.46,38.78-44.99,30.67-60.18-8.1-15.19-23.34-13.01-30.53-15.52Z"/></g><path class="cls-3" d="M47.92,22.52c-2.62,1.59-5.54,3.99-7.8,7.44-1.06,1.7-2.02,3.3-2.89,5.09-.83,1.77-1.67,3.56-2.51,5.36-1.49,3.66-2.89,7.34-3.93,10.88-.22,.68-.26,.95-.39,1.43-.11,.54-.23,1.14-.27,1.66-.08,1.01-.1,1.98-.05,2.9,.07,1.84,.39,3.51,.79,5.01,1.55,6.02,4.33,9.11,4.33,9.11,0,0-.86-3.96-.85-9.56,.01-1.39,.11-2.89,.29-4.39,.1-.75,.26-1.49,.45-2.21l.29-.94c.15-.36,.35-.97,.45-1.14,1.44-3.3,2.97-6.83,4.5-10.36,.75-1.75,1.49-3.51,2.23-5.24,.78-1.66,1.46-3.46,2.21-4.93,1.41-2.87,3.41-5.37,5.33-7.4,1.94-2.02,3.76-3.63,5.05-4.75,1.31-1.14,2.06-1.79,2.06-1.79,0,0-.98,.2-2.65,.74-1.65,.55-4.02,1.45-6.64,3.09Z"/><path class="cls-3" d="M42.75,16.42c-1.06-1.3-1.8-1.85-1.8-1.85,0,0,.35,.9,.72,2.4,.39,1.5,.7,3.66,.47,6.06-.13,1.2-.45,2.45-.88,3.73-.45,1.32-1.13,2.44-1.88,3.92-1.59,2.98-3.07,6.26-4.57,9.52-1.38,3.32-2.79,6.64-3.91,9.84-.63,1.71-1.02,2.9-1.7,3.92-.71,1.07-1.56,2.07-2.45,2.92-3.64,3.43-7.35,4.48-7.35,4.48,0,0,.9,.29,2.59,.25,1.66-.07,4.1-.45,6.75-1.84,1.33-.68,2.73-1.59,3.98-2.91,1.35-1.34,2.39-3.12,3.04-4.52,1.59-2.98,3.06-6.26,4.56-9.53,1.38-3.32,2.78-6.64,3.9-9.84,.64-1.58,1.24-3.48,1.45-5.19,.27-1.74,.2-3.42-.06-4.92-.5-3.01-1.82-5.16-2.86-6.44Z"/></g></g></svg>