<?xml version="1.0" encoding="UTF-8"?><svg id="Layer_2" xmlns="http://www.w3.org/2000/svg" viewBox="0 0 129.52 125.43"><defs><style>.cls-1{fill:#ce97f0;}.cls-2{isolation:isolate;}.cls-3{fill:#3a5a85;}</style></defs><g id="Layer_1-2"><g id="Layer_1-3"><g class="cls-2"><path class="cls-1" d="M80.17,8.27C64.95,3.08,39.97-4.23,28.63,3.08c-10.72,6.92-7.96,34.25-12.46,43.58-4.49,9.34-21.45,27.88-14.53,44.97,11.07,27.33,77.48,40.47,96.16,30.44,15.22-8.17,13.15-33.9,15.57-44.27,2.42-10.38,20.41-25.6,15.22-40.13-5.18-14.53-33.21-24.22-48.42-29.4Z"/></g><path class="cls-3" d="M57.33,65.64c-1.35,4.77-2.49,9.61-3.15,14.24-.67,4.62-1.03,8.99-.88,12.75,.01,3.74,.49,6.87,.94,9,.49,2.14,.83,3.32,.83,3.32,0,0,.14-1.23,.39-3.38,.24-2.12,.64-5.12,1.34-8.66,.62-3.54,1.61-7.62,2.66-11.98,1.14-4.34,2.31-8.98,3.74-13.57,1.24-4.64,2.8-9.19,4.07-13.53,1.39-4.32,2.68-8.34,3.79-11.8,2.22-6.91,3.9-11.59,3.9-11.59,0,0-3.46,3.65-7.09,10.17-3.74,6.42-7.76,15.51-10.54,25.03Z"/><path class="cls-3" d="M88.37,77.96c-1.34-.34-2.83-.64-4.45-1.14-6.46-1.81-14.79-4.82-22.97-8.38-4.12-1.7-8.17-3.61-12.02-5.34-3.84-1.78-7.43-3.44-10.5-4.87-6.16-2.88-10.45-4.71-10.45-4.71,0,0,3.1,3.5,8.64,7.7,5.47,4.26,13.38,9.14,21.93,12.84,4.31,1.75,8.68,3.38,12.97,4.38,4.23,1.13,8.34,1.68,11.85,1.85,1.74,.19,3.38,.05,4.8,.01,1.42,0,2.66-.17,3.67-.36,2.02-.33,3.14-.58,3.14-.58,0,0-1.13-.23-3.12-.63-.97-.15-2.15-.42-3.49-.77Z"/></g></g></svg>