<?xml version="1.0" encoding="UTF-8"?><svg id="Layer_2" xmlns="http://www.w3.org/2000/svg" viewBox="0 0 129.02 129.38"><defs><style>.cls-1{fill:#ce97f0;}.cls-2{isolation:isolate;}.cls-3{fill:#3a5a85;}</style></defs><g id="Layer_1-2"><g id="Layer_1-3"><g class="cls-2"><path class="cls-1" d="M85.47,14.67C70.74,9.8,53.99-2.86,39.39,.58c-14.61,3.43-17.42,30.33-22.92,42.01S-3.05,68.35,.6,85.51c3.64,17.16,27.15,24.26,39.92,30.31,12.77,6.07,30.27,18.11,48.15,11.76,18.17-6.44,16.13-28.85,21.1-39.88,4.98-11.04,22.97-23.36,18.56-44.51-3.35-16.04-28.12-23.65-42.86-28.52Z"/></g><path class="cls-3" d="M78.35,32.96c-.63,2.03-1.53,4.92-2.6,8.39-2.15,6.9-5.16,15.88-9.13,24.4-3.9,8.56-8.71,16.75-12.42,22.97-3.73,6.2-6.1,10.56-6.1,10.56,0,0,3.93-3.02,8.91-8.46,2.53-2.69,5.24-6.05,7.9-9.86,1.25-1.95,2.69-3.9,3.82-6.07,1.23-2.12,2.33-4.35,3.43-6.59,.98-2.3,1.94-4.59,2.76-6.91,.89-2.29,1.45-4.64,2.08-6.88,1.15-4.51,1.83-8.8,2.17-12.48,.72-7.39,.25-12.3,.25-12.3,0,0-.39,1.18-1.07,3.23Z"/><path class="cls-3" d="M90.55,71.74c-2.37-2.43-5.43-4.97-8.91-7.39-3.46-2.47-7.44-4.62-11.47-6.65-4.12-1.85-8.31-3.53-12.37-4.7-4.06-1.18-7.91-2.01-11.27-2.42-6.7-.93-11.22-.44-11.22-.44,0,0,4.15,1.54,10.37,3.84,6.13,2.29,14.12,5.55,21.88,9.23,7.76,3.67,15.31,7.77,20.81,11.25,2.78,1.73,5.01,3.21,6.64,4.33,1.63,1.1,2.56,1.73,2.56,1.73,0,0-.62-.94-1.69-2.58-1.11-1.55-2.91-3.84-5.33-6.2Z"/></g></g></svg>