<?xml version="1.0" encoding="UTF-8"?><svg id="Layer_2" xmlns="http://www.w3.org/2000/svg" viewBox="0 0 102.54 106.71"><defs><style>.cls-1{fill:#ce97f0;}.cls-2{isolation:isolate;}.cls-3{fill:#3a5a85;}</style></defs><g id="Layer_1-2"><g id="Layer_1-3"><g class="cls-2"><path class="cls-1" d="M97.8,13.4c-9.43-15.86-31.08-9.03-45.06-9.4-13.99-.38-27.26-9.37-40.09,.9S7.93,37.1,5.55,49.85c-2.37,12.75-11,26.75-.37,41.83,10.63,15.09,32.65,10.85,44.67,11.79,12.01,.94,29.41,8.26,42.62-2.85s3.88-31.04,4.11-42.68c.22-11.64,12.44-25.68,1.22-44.54Z"/></g><path class="cls-3" d="M51.47,16.7s-.17,4.62-.42,11.56c-.24,6.87-.54,15.97-1.09,25-.19,4.52-.58,9.02-.95,13.24-.41,4.21-.84,8.14-1.36,11.5-.5,3.36-.99,6.19-1.44,8.16-.41,2-.64,3.15-.64,3.15,0,0,.67-.95,1.77-2.7s2.47-4.39,3.7-7.71c1.32-3.3,2.44-7.29,3.29-11.62,.91-4.32,1.4-9,1.72-13.67,.52-9.36-.22-18.71-1.53-25.61-1.19-6.93-3.05-11.3-3.05-11.3Z"/><path class="cls-3" d="M51.73,54.51c-7.47-.73-14.84-1.72-20.35-2.9-1.4-.25-2.62-.62-3.76-.88s-2.12-.52-2.91-.8c-1.65-.48-2.59-.76-2.59-.76,0,0,.69,.68,2.02,1.83,.65,.59,1.49,1.26,2.53,1.87,1.02,.64,2.17,1.46,3.54,2.05,2.66,1.37,5.94,2.66,9.53,3.58,3.58,1.05,7.49,1.59,11.4,2.09,3.92,.29,7.83,.51,11.5,.32,3.66-.11,7.07-.49,9.96-.95,5.81-.9,9.54-2.31,9.54-2.31,0,0-3.92-.63-9.64-1.18-5.67-.54-13.22-1.25-20.77-1.96Z"/></g></g></svg>