<?xml version="1.0" encoding="UTF-8"?><svg id="Layer_2" xmlns="http://www.w3.org/2000/svg" viewBox="0 0 90.99 87.15"><defs><style>.cls-1{isolation:isolate;}.cls-2{fill:#a195f0;}.cls-3{fill:#3a5a85;}</style></defs><g id="Layer_1-2"><g id="Layer_1-3"><g class="cls-1"><path class="cls-2" d="M59.54,12.4C50.86,9.51,49.61-1.14,33.03,.1,10.61,1.79-4.96,53.55,1.45,63.5c9.16,14.22,27.48,8.44,33.02,10.85,5.55,2.41,10.85,13.26,27.72,12.78,20.04-.57,36.16-53.27,25.31-64.6-10.48-10.96-21.95-8.13-27.96-10.13Z"/></g><path class="cls-3" d="M48.98,15.85c-1.54-.93-2.48-1.31-2.48-1.31,0,0,.6,.8,1.66,2.2,.98,1.39,2.39,3.44,2.97,5.92,.28,1.24,.3,2.54,.06,3.86-.24,1.33-.89,2.55-1.67,4.38-1.53,3.38-2.95,7.06-4.38,10.74-1.29,3.66-2.58,7.31-3.79,10.74-1.26,3.32-2.47,6.42-3.98,8.46-1.41,2.1-3.53,2.93-5.22,3.48-1.66,.59-2.61,.93-2.61,.93,0,0,1,.14,2.77,.27,.89,.05,2,.11,3.35-.15,1.35-.25,2.89-.96,4.2-2.06,2.71-2.17,4.64-5.37,6.41-8.75,1.83-3.44,3.17-7.16,4.62-10.85,1.31-3.72,2.64-7.43,3.69-10.99,.54-1.62,1.16-3.79,1.15-5.86,.04-2.06-.54-3.99-1.35-5.5-1.63-3.05-3.92-4.55-5.4-5.51Z"/><path class="cls-3" d="M58.78,22.58c-1.59,.34-3.38,.9-5.08,2.18-1.78,1.08-3.22,3.77-3.7,5.2-1.52,3.35-2.93,7-4.36,10.65-1.33,3.71-2.77,7.38-3.66,11.12-.95,3.66-1.54,7.24-1.43,10.45,.01,3.24,1.35,6.04,2.68,7.28,1.29,1.27,2.08,1.87,2.08,1.87,0,0-.38-.92-1.05-2.52-.65-1.58-.82-3.69-.2-6.35,1.29-5.37,4.41-12.29,7.27-19.59,1.31-3.7,2.63-7.39,3.67-10.92,.64-2.05,.72-2.72,1.67-3.74,.86-.92,2.02-1.72,3.21-2.31,2.41-1.16,4.77-1.74,6.44-2.07,1.66-.32,2.69-.42,2.69-.42,0,0-.91-.4-2.68-.79-1.74-.34-4.34-.69-7.55-.04Z"/></g></g></svg>