<?xml version="1.0" encoding="UTF-8"?><svg id="Layer_2" xmlns="http://www.w3.org/2000/svg" viewBox="0 0 102.54 106.72"><defs><style>.cls-1{fill:#ce97f0;}.cls-2{isolation:isolate;}.cls-3{fill:#3a5a85;}</style></defs><g id="Layer_1-2"><g id="Layer_1-3"><g class="cls-2"><path class="cls-1" d="M89.88,4.9c-12.83-10.27-26.1-1.28-40.09-.9C35.81,4.38,14.16-2.46,4.73,13.4c-11.22,18.86,1.01,32.91,1.23,44.55,.23,11.64-9.1,31.57,4.11,42.68,13.21,11.11,30.61,3.79,42.62,2.85,12.01-.94,34.04,3.3,44.67-11.79,10.63-15.08,2-29.08-.37-41.83-2.39-12.76,5.71-34.69-7.11-44.96Z"/></g><path class="cls-3" d="M54.87,78.01c-.52-3.36-.95-7.29-1.36-11.5-.37-4.21-.76-8.71-.95-13.24-.55-9.03-.84-18.12-1.09-25-.25-6.94-.42-11.56-.42-11.56,0,0-1.86,4.37-3.07,11.3-1.31,6.9-2.05,16.25-1.53,25.61,.32,4.67,.81,9.35,1.73,13.67,.86,4.33,1.97,8.32,3.29,11.62,1.23,3.32,2.6,5.96,3.7,7.71,1.1,1.75,1.77,2.7,1.77,2.7,0,0-.23-1.15-.64-3.15-.44-1.97-.92-4.8-1.43-8.16Z"/><path class="cls-3" d="M74.91,50.75c-1.14,.26-2.36,.63-3.76,.88-5.51,1.17-12.88,2.17-20.35,2.9-7.55,.71-15.09,1.42-20.75,1.95-5.72,.55-9.64,1.18-9.64,1.18,0,0,3.73,1.41,9.54,2.31,2.9,.46,6.3,.85,9.96,.95,3.67,.19,7.58-.03,11.5-.32,3.9-.5,7.82-1.04,11.4-2.09,3.59-.92,6.87-2.22,9.53-3.58,1.36-.59,2.51-1.41,3.53-2.05,1.04-.61,1.88-1.27,2.53-1.87,1.32-1.14,2.01-1.83,2.01-1.83,0,0-.94,.27-2.59,.76-.79,.29-1.78,.54-2.91,.81Z"/></g></g></svg>