<?xml version="1.0" encoding="UTF-8"?><svg id="Layer_2" xmlns="http://www.w3.org/2000/svg" viewBox="0 0 103.77 101.36"><defs><style>.cls-1{fill:#ce97f0;}.cls-2{isolation:isolate;}.cls-3{fill:#3a5a85;}</style></defs><g id="Layer_1-2"><g id="Layer_1-3"><g class="cls-2"><path class="cls-1" d="M58.26,5.52c-11.29-.85-29.38-10.62-42.87-1.97C1.9,12.21,5.43,33.51,3.67,45.17c-1.76,11.65-6.94,29.69-.62,40.21,10.12,16.83,26.93,10.89,48.07,14.44,18.59,3.11,31.18,1.54,38.8-5.07,16.26-14.13,17.61-68.75,7.15-81.19-7.17-8.54-27.53-7.19-38.81-8.04Z"/></g><path class="cls-3" d="M46.15,52.4c-.12,4.3-.03,8.63,.45,12.67,.48,4.04,1.18,7.79,2.21,10.91,.89,3.13,2.08,5.64,3,7.29,.96,1.66,1.54,2.55,1.54,2.55,0,0-.14-1.06-.39-2.93-.25-1.83-.55-4.43-.7-7.55-.37-6.21-.39-14.44,0-22.71,.05-4.14,.4-8.28,.54-12.18,.23-3.91,.45-7.56,.63-10.69,.43-6.35,.72-10.58,.72-10.58,0,0-2.33,3.73-4.16,9.95-1.94,6.17-3.52,14.66-3.84,23.27Z"/><path class="cls-3" d="M71.77,51.52c-6,.52-13.95,.68-21.96,.38-4.01-.07-8.02-.33-11.81-.49-3.8-.2-7.35-.38-10.4-.54-6.12-.32-10.34-.35-10.34-.35,0,0,3.73,2.02,9.74,3.79,5.98,1.85,14.22,3.41,22.61,3.7,4.19,.05,8.41-.02,12.34-.62,3.93-.47,7.56-1.39,10.56-2.44,1.52-.43,2.85-1.1,4.02-1.63,1.19-.49,2.17-1.05,2.95-1.56,1.58-.98,2.42-1.58,2.42-1.58,0,0-1.03,.16-2.84,.44-1.75,.37-4.31,.6-7.29,.9Z"/></g></g></svg>