<?xml version="1.0" encoding="UTF-8"?><svg id="Layer_2" xmlns="http://www.w3.org/2000/svg" viewBox="0 0 103.77 101.36"><defs><style>.cls-1{fill:#ce97f0;}.cls-2{isolation:isolate;}.cls-3{fill:#3a5a85;}</style></defs><g id="Layer_1-2"><g id="Layer_1-3"><g class="cls-2"><path class="cls-1" d="M88.39,3.55c-13.49-8.65-31.58,1.12-42.87,1.97-11.28,.85-31.65-.5-38.82,8.04C-3.76,26-2.41,80.62,13.85,94.75c7.61,6.61,20.21,8.18,38.8,5.07,21.15-3.55,37.96,2.39,48.07-14.44,6.32-10.52,1.14-28.56-.62-40.21-1.74-11.66,1.79-32.96-11.71-41.62Z"/></g><path class="cls-3" d="M52.99,26.4c-1.72-6.51-3.97-10.46-3.97-10.46,0,0,.21,4.41,.52,11.01,.13,3.26,.29,7.06,.45,11.14,.07,4.07,.36,8.38,.35,12.69,.27,8.63,.15,17.2-.26,23.67-.18,3.24-.48,5.95-.74,7.85-.25,1.94-.39,3.04-.39,3.04,0,0,.59-.94,1.55-2.67,.92-1.74,2.12-4.34,3.03-7.59,1.05-3.24,1.78-7.12,2.3-11.3,.53-4.18,.67-8.67,.61-13.14-.19-8.94-1.62-17.78-3.45-24.24Z"/><path class="cls-3" d="M65.78,51.41c-3.79,.16-7.8,.42-11.81,.49-8.01,.31-15.96,.15-21.96-.38-2.98-.3-5.55-.54-7.3-.9-1.81-.28-2.84-.44-2.84-.44,0,0,.85,.6,2.42,1.58,.78,.51,1.76,1.07,2.95,1.56,1.17,.52,2.5,1.19,4.02,1.63,3,1.05,6.63,1.97,10.56,2.44,3.93,.59,8.14,.66,12.34,.62,8.39-.3,16.63-1.85,22.61-3.7,6.01-1.77,9.74-3.79,9.74-3.79,0,0-4.22,.03-10.34,.35-3.03,.15-6.58,.34-10.39,.54Z"/></g></g></svg>