<?xml version="1.0" encoding="UTF-8"?><svg id="Layer_2" xmlns="http://www.w3.org/2000/svg" viewBox="0 0 105.42 108.79"><defs><style>.cls-1{fill:#ce97f0;}.cls-2{isolation:isolate;}.cls-3{fill:#3a5a85;}</style></defs><g id="Layer_1-2"><g id="Layer_1-3"><g class="cls-2"><path class="cls-1" d="M88.04,7.42C67.23-8.41,12.08,4.15,4.58,16.59c-9.62,15.97-1.42,29.03,.71,41.99,2.14,12.96-4.96,33.17,9.74,43.26,22.44,15.41,77.23,2.63,86.63-13.37,8.05-13.71,.95-28.88-.82-39.98-1.77-11.1,4.6-27.83-12.8-41.07Z"/></g><path class="cls-3" d="M52.11,73.34c-.63-6-.94-13.97-.88-22.01-.04-4.02,.06-8.05,.1-11.85,.05-3.81,.11-7.37,.15-10.42,.02-6.2,.03-10.34,.03-10.34,0,0-1.95,3.78-3.49,9.87-1.63,6.05-2.85,14.35-2.9,22.73,.08,4.19,.26,8.4,.94,12.31,.57,3.91,1.52,7.53,2.64,10.51,1.07,2.99,2.27,5.38,3.31,6.93,1.02,1.56,1.63,2.39,1.63,2.39,0,0-.18-1.03-.5-2.83-.38-1.76-.7-4.3-1.03-7.29Z"/><path class="cls-3" d="M74.14,47.78c-3.12-.77-6.83-1.24-10.8-1.49-3.98-.25-8.23-.13-12.45,.2-8.45,.73-16.75,2.75-22.68,5.15-2.97,1.14-5.36,2.46-6.96,3.43-1.53,1.04-2.37,1.71-2.37,1.71,0,0,1.04-.22,2.86-.6,1.8-.32,4.31-.74,7.37-1.16,6.1-.83,14.2-1.78,22.31-2.43,8.1-.78,16.21-1.2,22.35-1.31,3.07-.08,5.66-.03,7.48,.02,1.85,.04,2.91,.06,2.91,.06,0,0-.93-.49-2.65-1.25-1.71-.74-4.25-1.68-7.37-2.33Z"/></g></g></svg>