<?xml version="1.0" encoding="UTF-8"?><svg id="Layer_2" xmlns="http://www.w3.org/2000/svg" viewBox="0 0 101.55 101.47"><defs><style>.cls-1{fill:#ce97f0;}.cls-2{isolation:isolate;}.cls-3{fill:#3a5a85;}</style></defs><g id="Layer_1-2"><g id="Layer_1-3"><g class="cls-2"><path class="cls-1" d="M79.72,1.46c-11.42-4.73-26.72,3.35-39.34,5.36C27.75,8.83,6.6,11.73,1.75,24.34c-6.39,16.61,6.61,29.02,9.19,38.65s-2.05,27.58,11.88,35.23c13.7,7.53,29.52,.05,40.71-3.19s31.24-5.89,36.48-19.36-4.29-26.78-7.22-37-1.65-32.49-13.07-37.21Z"/></g><path class="cls-3" d="M53.89,51.23c-2.15-7.39-3.57-15.01-4.59-20.88-.98-5.83-1.84-9.89-1.84-9.89,0,0-1.18,3.92-1.65,10.06-.25,3.05-.3,6.64,.04,10.49,.22,1.91,.36,3.92,.79,5.9,.37,2,.86,4,1.37,6.01,.63,1.97,1.26,3.94,2,5.82,.66,1.92,1.61,3.68,2.4,5.43,1.73,3.43,3.58,6.49,5.37,8.97,3.5,5.01,6.47,7.86,6.47,7.86,0,0-1.23-3.94-3.37-9.5-2.11-5.59-4.91-12.86-6.99-20.27Z"/><path class="cls-3" d="M50.42,47.84c-3.56,1.13-7.1,2.37-10.24,3.97-3.15,1.55-5.96,3.27-8.19,5-2.25,1.65-4,3.36-5.07,4.53-1.08,1.22-1.66,1.96-1.66,1.96,0,0,.88-.33,2.37-.98,1.52-.66,3.55-1.48,6.06-2.46,4.98-1.97,11.65-4.2,18.41-6.14,6.76-1.96,13.63-3.64,18.89-4.82,5.25-1.17,8.91-2.06,8.91-2.06,0,0-3.6-1.18-9.21-1.44-5.57-.36-13.07,.39-20.27,2.44Z"/></g></g></svg>