<?xml version="1.0" encoding="UTF-8"?><svg id="Layer_2" xmlns="http://www.w3.org/2000/svg" viewBox="0 0 101.56 101.46"><defs><style>.cls-1{fill:#ce97f0;}.cls-2{isolation:isolate;}.cls-3{fill:#3a5a85;}</style></defs><g id="Layer_1-2"><g id="Layer_1-3"><g class="cls-2"><path class="cls-1" d="M61.17,6.82C48.55,4.81,33.25-3.27,21.83,1.46,10.41,6.18,11.68,28.43,8.76,38.66S-3.7,62.19,1.54,75.66s25.29,16.13,36.48,19.36c11.19,3.24,27.02,10.72,40.71,3.19,13.92-7.65,9.29-25.59,11.88-35.23,2.58-9.63,15.59-22.04,9.19-38.65-4.85-12.59-26.01-15.5-38.63-17.51Z"/></g><path class="cls-3" d="M54.1,20.47s-.86,4.07-1.84,9.89c-1.02,5.87-2.44,13.49-4.59,20.88-2.09,7.41-4.88,14.68-7,20.26-2.14,5.56-3.37,9.5-3.37,9.5,0,0,2.98-2.85,6.47-7.86,1.78-2.48,3.63-5.54,5.37-8.97,.79-1.75,1.75-3.51,2.4-5.43,.74-1.89,1.37-3.85,2-5.82,.51-2,1-4.01,1.37-6.01,.44-1.98,.57-3.99,.79-5.9,.34-3.84,.3-7.44,.04-10.49-.46-6.13-1.64-10.05-1.64-10.05Z"/><path class="cls-3" d="M69.56,56.82c-2.23-1.73-5.04-3.45-8.19-5-3.14-1.6-6.68-2.84-10.24-3.97-7.2-2.05-14.7-2.8-20.29-2.44-5.6,.26-9.21,1.44-9.21,1.44,0,0,3.66,.89,8.91,2.06,5.26,1.18,12.13,2.86,18.89,4.82,6.76,1.94,13.43,4.17,18.41,6.14,2.51,.98,4.55,1.81,6.06,2.46,1.49,.65,2.37,.98,2.37,.98,0,0-.58-.74-1.66-1.96-1.06-1.18-2.8-2.88-5.05-4.53Z"/></g></g></svg>