<?xml version="1.0" encoding="UTF-8"?><svg id="Layer_2" xmlns="http://www.w3.org/2000/svg" viewBox="0 0 101.48 99.88"><defs><style>.cls-1{fill:#ce97f0;}.cls-2{isolation:isolate;}.cls-3{fill:#3a5a85;}</style></defs><g id="Layer_1-2"><g id="Layer_1-3"><g class="cls-2"><path class="cls-1" d="M64.66,6.71C52.37,2.5,32.2-3.42,23.04,2.5c-8.66,5.6-6.43,27.75-10.06,35.32S-4.13,61.65,1.25,74.26c6.65,15.58,26.58,15.35,36.6,18.33,11.41,3.39,25.13,11.79,39.96,4.24,14.84-7.55,11.71-25.38,13.66-33.78,1.96-8.41,13.27-20.84,9.08-32.61-4.19-11.78-23.6-19.53-35.89-23.73Z"/></g><path class="cls-3" d="M56.08,31c-3.23,5.3-6.66,12.85-8.99,20.79-1.11,3.98-2.06,8.02-2.57,11.89-.52,3.86-.77,7.52-.58,10.66,.06,3.13,.54,5.74,.98,7.51,.47,1.78,.79,2.75,.79,2.75,0,0,.16-1.02,.43-2.81,.25-1.76,.67-4.25,1.31-7.17,1.24-5.85,3.22-13.5,5.52-21.13,1.02-3.85,2.3-7.62,3.32-11.23,1.1-3.6,2.12-6.96,3-9.84,1.79-5.85,2.98-9.75,2.98-9.75,0,0-3.05,2.95-6.19,8.33Z"/><path class="cls-3" d="M68.97,57.01c-2.59-.71-5.61-1.53-8.85-2.42-3.2-.93-6.62-1.84-9.96-2.98-6.75-2.07-13.38-4.52-18.42-6.46-5.13-1.98-8.55-3.29-8.55-3.29,0,0,2.33,2.99,6.85,6.35,4.46,3.39,11.13,6.99,18.29,9.23,3.58,1.08,7.22,1.96,10.7,2.42,3.46,.5,6.73,.68,9.52,.63,2.79-.02,5.12-.25,6.74-.52,1.62-.24,2.54-.44,2.54-.44,0,0-.9-.32-2.45-.78-1.56-.41-3.76-1.01-6.41-1.74Z"/></g></g></svg>