<?xml version="1.0" encoding="UTF-8"?><svg id="Layer_2" xmlns="http://www.w3.org/2000/svg" viewBox="0 0 105.42 108.79"><defs><style>.cls-1{fill:#ce97f0;}.cls-2{isolation:isolate;}.cls-3{fill:#3a5a85;}</style></defs><g id="Layer_1-2"><g id="Layer_1-3"><g class="cls-2"><path class="cls-1" d="M17.38,7.42C-.02,20.65,6.34,37.38,4.58,48.48s-8.87,26.27-.82,39.98c9.4,16,64.19,28.79,86.63,13.37,14.69-10.09,7.6-30.3,9.74-43.26s10.33-26.02,.71-41.99C93.34,4.15,38.19-8.4,17.38,7.42Z"/></g><path class="cls-3" d="M53.91,18.72s.01,4.14,.03,10.34c.04,3.05,.1,6.61,.15,10.42,.04,3.8,.14,7.83,.1,11.85,.06,8.04-.26,16.01-.88,22.01-.33,2.99-.64,5.54-1.02,7.29-.32,1.8-.5,2.83-.5,2.83,0,0,.62-.83,1.63-2.39,1.03-1.54,2.23-3.93,3.31-6.93,1.12-2.98,2.07-6.6,2.64-10.51,.68-3.91,.86-8.12,.94-12.31-.05-8.39-1.27-16.68-2.9-22.73-1.55-6.09-3.5-9.87-3.5-9.87Z"/><path class="cls-3" d="M77.22,51.63c-5.93-2.39-14.23-4.41-22.68-5.15-4.22-.33-8.47-.45-12.45-.2s-7.69,.72-10.8,1.49c-3.13,.65-5.66,1.6-7.37,2.32-1.71,.77-2.65,1.25-2.65,1.25,0,0,1.06-.02,2.91-.06,1.83-.05,4.41-.1,7.48-.02,6.14,.11,14.25,.53,22.35,1.31,8.11,.66,16.21,1.6,22.31,2.43,3.06,.43,5.57,.85,7.37,1.16,1.82,.38,2.86,.6,2.86,.6,0,0-.83-.67-2.37-1.71-1.61-.96-4-2.27-6.96-3.42Z"/></g></g></svg>