<?xml version="1.0" encoding="UTF-8"?><svg id="Layer_2" xmlns="http://www.w3.org/2000/svg" viewBox="0 0 101.48 99.88"><defs><style>.cls-1{fill:#ce97f0;}.cls-2{isolation:isolate;}.cls-3{fill:#3a5a85;}</style></defs><g id="Layer_1-2"><g id="Layer_1-3"><g class="cls-2"><path class="cls-1" d="M78.43,2.5c-9.15-5.93-29.33,0-41.62,4.21C24.52,10.91,5.1,18.67,.92,30.44c-4.19,11.77,7.12,24.2,9.08,32.61s-1.17,26.24,13.66,33.78c14.84,7.54,28.55-.85,39.96-4.24,10.02-2.98,29.95-2.75,36.6-18.33,5.38-12.61-8.1-28.87-11.73-36.44-3.63-7.57-1.4-29.72-10.06-35.32Z"/></g><path class="cls-3" d="M54.38,51.79c-2.33-7.94-5.76-15.49-8.99-20.79-3.14-5.38-6.17-8.33-6.17-8.33,0,0,1.19,3.9,2.98,9.75,.88,2.88,1.9,6.24,3,9.84,1.02,3.61,2.3,7.39,3.32,11.23,2.3,7.62,4.28,15.28,5.52,21.13,.64,2.93,1.06,5.41,1.31,7.17,.27,1.79,.43,2.81,.43,2.81,0,0,.32-.98,.79-2.75,.43-1.77,.91-4.38,.97-7.51,.19-3.15-.06-6.8-.58-10.66-.52-3.86-1.46-7.91-2.58-11.89Z"/><path class="cls-3" d="M51.31,51.62c-3.34,1.14-6.76,2.04-9.96,2.98-3.24,.88-6.26,1.71-8.85,2.42-2.64,.73-4.84,1.33-6.38,1.75-1.56,.46-2.45,.78-2.45,.78,0,0,.92,.2,2.54,.44,1.62,.26,3.94,.49,6.74,.52,2.79,.05,6.06-.13,9.52-.63,3.47-.46,7.11-1.34,10.69-2.42,7.15-2.24,13.82-5.84,18.29-9.23,4.52-3.35,6.85-6.35,6.85-6.35,0,0-3.42,1.32-8.55,3.29-5.06,1.93-11.69,4.37-18.44,6.45Z"/></g></g></svg>