<?xml version="1.0" encoding="UTF-8"?><svg id="Layer_2" xmlns="http://www.w3.org/2000/svg" viewBox="0 0 124.8 125.2"><defs><style>.cls-1{fill:#ce97f0;}.cls-2{isolation:isolate;}.cls-3{fill:#3a5a85;}</style></defs><g id="Layer_1-2"><g id="Layer_1-3"><g class="cls-2"><path class="cls-1" d="M93.01,4.07C67.17-9.6,8.6,14.31,2.6,29.41c-7.7,19.37,3.72,32.29,8.44,46.19,4.72,13.91,.58,37.5,18.63,45.96,27.57,12.91,85.69-11.18,93.14-30.55,6.38-16.59-4.23-32.04-8.19-43.96-3.97-11.93,.01-31.55-21.61-42.98Z"/></g><path class="cls-3" d="M65.2,83.42c-1.88-6.49-3.75-15.24-5.15-24.14-.77-4.44-1.39-8.91-2.01-13.12-.59-4.23-1.15-8.17-1.62-11.55-.99-6.85-1.65-11.42-1.65-11.42,0,0-1.34,4.53-1.84,11.52-.6,6.97-.38,16.32,1.1,25.56,.84,4.6,1.8,9.2,3.23,13.38,1.32,4.2,2.98,8.02,4.71,11.12,1.69,3.11,3.4,5.55,4.78,7.08,1.37,1.55,2.18,2.38,2.18,2.38,0,0-.41-1.09-1.13-3-.78-1.84-1.64-4.58-2.6-7.81Z"/><path class="cls-3" d="M85.05,51.34c-3.57-.24-7.73-.04-12.15,.43-4.42,.48-9.08,1.39-13.66,2.53-9.17,2.34-17.96,6.02-24.09,9.65-3.08,1.76-5.49,3.6-7.1,4.93-1.52,1.39-2.34,2.25-2.34,2.25,0,0,1.09-.45,3-1.25,1.91-.71,4.58-1.69,7.87-2.75,6.55-2.12,15.32-4.7,24.17-6.92,8.82-2.34,17.72-4.22,24.5-5.37,3.39-.6,6.25-.97,8.28-1.21,2.05-.25,3.22-.39,3.22-.39,0,0-1.12-.34-3.15-.83-2.03-.44-4.99-.97-8.55-1.07Z"/></g></g></svg>