<?xml version="1.0" encoding="UTF-8"?><svg id="Layer_2" xmlns="http://www.w3.org/2000/svg" viewBox="0 0 129.02 129.39"><defs><style>.cls-1{fill:#ce97f0;}.cls-2{isolation:isolate;}.cls-3{fill:#3a5a85;}</style></defs><g id="Layer_1-2"><g id="Layer_1-3"><g class="cls-2"><path class="cls-1" d="M89.63,.58c-14.61-3.44-31.35,9.23-46.08,14.09C28.81,19.54,4.04,27.15,.69,43.2c-4.42,21.15,13.58,33.47,18.56,44.51,4.97,11.04,2.93,33.44,21.1,39.88,17.88,6.35,35.38-5.7,48.15-11.76s36.28-13.15,39.92-30.31c3.65-17.16-10.37-31.24-15.87-42.92-5.5-11.68-8.31-38.59-22.92-42.02Z"/></g><path class="cls-3" d="M62.41,65.76c-3.97-8.53-6.98-17.5-9.13-24.4-1.08-3.47-1.97-6.37-2.6-8.39-.68-2.04-1.07-3.21-1.07-3.21,0,0-.48,4.9,.25,12.3,.34,3.68,1.01,7.97,2.17,12.48,.63,2.24,1.19,4.59,2.08,6.88,.81,2.32,1.78,4.61,2.76,6.91,1.1,2.23,2.21,4.47,3.43,6.59,1.13,2.17,2.57,4.12,3.82,6.07,2.66,3.81,5.38,7.17,7.9,9.86,4.98,5.44,8.91,8.46,8.91,8.46,0,0-2.37-4.36-6.09-10.56-3.72-6.24-8.54-14.43-12.43-22.99Z"/><path class="cls-3" d="M82.49,50.6c-3.36,.4-7.21,1.24-11.27,2.42-4.06,1.16-8.25,2.85-12.37,4.7-4.03,2.03-8.01,4.18-11.47,6.65-3.48,2.42-6.53,4.96-8.91,7.39-2.41,2.35-4.22,4.65-5.32,6.22-1.08,1.64-1.69,2.58-1.69,2.58,0,0,.93-.63,2.56-1.73,1.63-1.13,3.86-2.61,6.64-4.33,5.5-3.48,13.05-7.58,20.81-11.25,7.76-3.68,15.74-6.94,21.88-9.23,6.22-2.3,10.37-3.84,10.37-3.84,0,0-4.53-.51-11.23,.42Z"/></g></g></svg>