<?xml version="1.0" encoding="UTF-8"?><svg id="Layer_2" xmlns="http://www.w3.org/2000/svg" viewBox="0 0 84.67 86.2"><defs><style>.cls-1{isolation:isolate;}.cls-2{fill:#a195f0;}.cls-3{fill:#3a5a85;}</style></defs><g id="Layer_1-2"><g id="Layer_1-3"><g class="cls-1"><path class="cls-2" d="M59.67,.1c-11.06-1.16-20.11,7.78-27.3,10.3-7.19,2.51-22.43,.33-30.54,15.52-8.11,15.19,12.23,58.72,30.67,60.18,13.87,1.09,17.6-7.17,26.13-11.78s22.71-6.29,25.56-20.21C87.93,35.91,68.71,1.05,59.67,.1Z"/></g><path class="cls-3" d="M54.27,52.72c-.14-.49-.17-.76-.39-1.43-1.04-3.55-2.43-7.22-3.93-10.88-.84-1.79-1.68-3.59-2.51-5.36-.87-1.79-1.83-3.39-2.89-5.09-2.26-3.46-5.18-5.85-7.8-7.44-2.62-1.63-4.99-2.53-6.65-3.08-1.67-.54-2.65-.74-2.65-.74,0,0,.75,.65,2.06,1.79,1.3,1.12,3.11,2.74,5.05,4.75,1.92,2.03,3.93,4.53,5.33,7.4,.75,1.46,1.43,3.27,2.21,4.93,.73,1.73,1.48,3.48,2.23,5.24,1.53,3.53,3.06,7.05,4.5,10.36,.1,.17,.3,.78,.45,1.14l.29,.94c.2,.72,.35,1.46,.45,2.21,.18,1.5,.29,2.99,.29,4.39,0,5.6-.85,9.56-.85,9.56,0,0,2.79-3.08,4.33-9.11,.39-1.49,.72-3.17,.79-5.01,.05-.92,.03-1.89-.05-2.9-.03-.53-.15-1.13-.26-1.67Z"/><path class="cls-3" d="M55.46,53.95c-.67-1.02-1.07-2.21-1.7-3.92-1.12-3.2-2.52-6.51-3.91-9.84-1.5-3.27-2.98-6.54-4.57-9.52-.75-1.49-1.42-2.6-1.88-3.92-.43-1.27-.75-2.53-.88-3.73-.24-2.4,.08-4.56,.47-6.06,.37-1.5,.72-2.4,.72-2.4,0,0-.74,.55-1.8,1.85-1.04,1.28-2.35,3.43-2.88,6.44-.26,1.49-.33,3.18-.06,4.92,.21,1.71,.81,3.61,1.45,5.19,1.12,3.2,2.52,6.52,3.9,9.84,1.5,3.27,2.98,6.55,4.56,9.53,.65,1.4,1.69,3.18,3.04,4.52,1.25,1.31,2.66,2.23,3.98,2.91,2.65,1.38,5.09,1.77,6.75,1.84,1.69,.05,2.59-.25,2.59-.25,0,0-3.71-1.05-7.35-4.48-.87-.85-1.72-1.84-2.43-2.92Z"/></g></g></svg>