<?xml version="1.0" encoding="UTF-8"?><svg id="Layer_2" xmlns="http://www.w3.org/2000/svg" viewBox="0 0 124.81 125.19"><defs><style>.cls-1{fill:#ce97f0;}.cls-2{isolation:isolate;}.cls-3{fill:#3a5a85;}</style></defs><g id="Layer_1-2"><g id="Layer_1-3"><g class="cls-2"><path class="cls-1" d="M31.8,4.07C10.19,15.5,14.16,35.12,10.19,47.04c-3.97,11.92-14.58,27.37-8.19,43.96,7.45,19.37,65.57,43.47,93.14,30.55,18.05-8.46,13.91-32.04,18.63-45.96,4.72-13.9,16.14-26.82,8.44-46.19C116.2,14.31,57.64-9.6,31.8,4.07Z"/></g><path class="cls-3" d="M70.04,23.19s-.66,4.57-1.65,11.42c-.48,3.38-1.03,7.33-1.62,11.55-.62,4.21-1.24,8.68-2.01,13.12-1.41,8.9-3.27,17.65-5.15,24.14-.96,3.23-1.81,5.96-2.59,7.81-.72,1.91-1.13,3-1.13,3,0,0,.81-.82,2.18-2.38,1.39-1.53,3.1-3.97,4.78-7.08,1.73-3.1,3.39-6.91,4.71-11.12,1.43-4.19,2.39-8.78,3.23-13.38,1.47-9.24,1.7-18.59,1.1-25.56-.51-6.98-1.85-11.52-1.85-11.52Z"/><path class="cls-3" d="M96.77,68.87c-1.61-1.33-4.02-3.17-7.1-4.93-6.13-3.63-14.92-7.31-24.09-9.65-4.59-1.14-9.24-2.05-13.66-2.53-4.42-.47-8.58-.67-12.15-.43-3.56,.11-6.52,.63-8.54,1.08-2.03,.49-3.15,.83-3.15,.83,0,0,1.17,.14,3.22,.39,2.03,.24,4.89,.6,8.28,1.21,6.78,1.15,15.68,3.04,24.5,5.37,8.85,2.21,17.61,4.79,24.17,6.92,3.29,1.07,5.97,2.04,7.87,2.75,1.91,.79,3,1.25,3,1.25,0,0-.84-.86-2.35-2.26Z"/></g></g></svg>